<?xml version="1.0" encoding="UTF-8"?>
<svg id="Layer_2" data-name="Layer 2" xmlns="http://www.w3.org/2000/svg" viewBox="0 0 398.17 255.71">
  <defs>
    <style>
      .cls-1 {
        fill: #f7e2b4;
      }

      .cls-1, .cls-2, .cls-3, .cls-4, .cls-5, .cls-6, .cls-7, .cls-8, .cls-9, .cls-10, .cls-11, .cls-12, .cls-13, .cls-14, .cls-15, .cls-16, .cls-17 {
        stroke: #1a1a1a;
        stroke-miterlimit: 10;
        stroke-width: 7px;
      }

      .cls-2 {
        fill: #d39087;
      }

      .cls-3 {
        fill: #f5eacf;
      }

      .cls-4 {
        fill: #7e4238;
      }

      .cls-5 {
        fill: #1d1c1c;
      }

      .cls-6 {
        fill: #b5b59d;
      }

      .cls-7 {
        fill: #8fa6ac;
      }

      .cls-8 {
        fill: #004651;
      }

      .cls-9 {
        fill: #f2ef12;
      }

      .cls-10 {
        fill: #00a181;
      }

      .cls-11 {
        fill: #85865f;
      }

      .cls-12 {
        fill: #f4f4f4;
      }

      .cls-13 {
        fill: #707070;
      }

      .cls-14 {
        fill: #2596be;
      }

      .cls-15 {
        fill: #a4e473;
      }

      .cls-16 {
        fill: #8a584c;
      }

      .cls-17 {
        fill: #4f583d;
      }
    </style>
  </defs>
  <g id="Layer_1-2" data-name="Layer 1">
    <g>
      <g>
        <rect class="cls-5" x="46.8" y="7.32" width="80" height="34.19" rx="6" ry="6" transform="translate(3.37 -9.79) rotate(6.58)"/>
        <rect class="cls-8" x="108.8" y="26.32" width="53" height="34" rx="6" ry="6"/>
        <rect class="cls-10" x="85.8" y="35.32" width="35" height="29" rx="6" ry="6" transform="translate(-6.89 18.02) rotate(-9.65)"/>
        <rect class="cls-15" x="103.8" y="53.32" width="46" height="36" rx="6" ry="6" transform="translate(9.61 -14.88) rotate(6.98)"/>
        <rect class="cls-9" x="76.82" y="62.61" width="47" height="47" rx="6" ry="6" transform="translate(-10.25 13.63) rotate(-7.39)"/>
        <rect class="cls-12" x="103.8" y="87.32" width="75" height="35" rx="6" ry="6"/>
        <rect class="cls-13" x="85.8" y="102.32" width="35" height="46" rx="6" ry="6"/>
        <rect class="cls-16" x="112.8" y="112.32" width="38" height="49" rx="6" ry="6"/>
        <rect class="cls-7" x="94.8" y="133.32" width="35" height="40" rx="6" ry="6"/>
        <rect class="cls-3" x="111.8" y="153.32" width="29" height="54" rx="6" ry="6"/>
        <rect class="cls-11" x="81.8" y="161.32" width="39" height="45" rx="6" ry="6" transform="translate(85.15 -25.44) rotate(24.44)"/>
        <rect class="cls-17" x="85.8" y="189.32" width="65" height="36" rx="6" ry="6" transform="translate(35.29 -16.48) rotate(9.36)"/>
        <rect class="cls-4" x="64.8" y="183.32" width="44" height="65" rx="6" ry="6" transform="translate(-68.99 43.07) rotate(-20.13)"/>
        <rect class="cls-2" x="35.8" y="204.32" width="45" height="34" rx="6" ry="6"/>
        <rect class="cls-6" x="11.61" y="201.44" width="51.14" height="35.11" rx="6" ry="6" transform="translate(119.95 12.86) rotate(31.51)"/>
        <rect class="cls-1" x="35.8" y="184.32" width="35" height="35" rx="6" ry="6"/>
        <rect class="cls-14" x="6.8" y="173.32" width="42" height="34" rx="6" ry="6" transform="translate(86.14 7.04) rotate(25.97)"/>
      </g>
      <g>
        <path class="cls-12" d="m338.32,70.31l-61.42-25.24c-3.23-1.33-4.81-5.11-3.52-8.45l6.75-17.52c1.29-3.34,4.95-4.97,8.18-3.64l61.42,25.24c3.23,1.33,4.81,5.11,3.52,8.45l-6.75,17.52c-1.29,3.34-4.95,4.97-8.18,3.64Z"/>
        <path class="cls-5" d="m303.14,54.97l-42.87-5.11c-3.45-.41-5.93-3.64-5.53-7.21l2.67-23.89c.4-3.57,3.52-6.13,6.97-5.72l42.87,5.11c3.45.41,5.93,3.64,5.53,7.21l-2.67,23.89c-.4,3.57-3.52,6.13-6.97,5.72Z"/>
        <rect class="cls-8" x="229.57" y="17.14" width="55.61" height="36.86" rx="6" ry="6"/>
        <path class="cls-10" d="m238.24,56.02l-23.79,4.18c-3.43.6-6.68-1.78-7.26-5.32l-2.99-18.17c-.58-3.54,1.72-6.9,5.15-7.5l23.79-4.18c3.43-.6,6.68,1.78,7.26,5.32l2.99,18.17c.58,3.54-1.72,6.9-5.15,7.5Z"/>
        <path class="cls-15" d="m263.86,94.03l-35.41-4.48c-3.45-.44-5.91-3.68-5.48-7.25l3.97-33.55c.42-3.57,3.56-6.1,7.01-5.67l35.41,4.48c3.45.44,5.91,3.68,5.48,7.25l-3.97,33.55c-.42,3.57-3.56,6.1-7.01,5.67Z"/>
        <path class="cls-9" d="m242.05,104.77l-36.42,4.88c-3.45.46-6.61-2.05-7.05-5.61l-4.73-37.62c-.45-3.56,1.98-6.82,5.43-7.29l36.42-4.88c3.45-.46,6.61,2.05,7.05,5.61l4.73,37.62c.45,3.56-1.98,6.82-5.43,7.29Z"/>
        <rect class="cls-13" x="205.44" y="99.53" width="36.72" height="49.86" rx="6" ry="6"/>
        <path class="cls-12" d="m286.99,130.84l-65.22-11.11c-3.43-.58-5.75-3.93-5.19-7.47l3.92-24.6c.57-3.54,3.8-5.94,7.23-5.36l65.22,11.11c3.43.58,5.75,3.93,5.19,7.47l-3.92,24.6c-.57,3.54-3.8,5.94-7.23,5.36Z"/>
        <rect class="cls-16" x="233.76" y="115.79" width="39.87" height="53.12" rx="6" ry="6"/>
        <rect class="cls-7" x="214.88" y="133.13" width="36.72" height="43.36" rx="6" ry="6"/>
        <rect class="cls-3" x="232.71" y="154.81" width="30.43" height="58.54" rx="6" ry="6"/>
        <path class="cls-11" d="m224.82,216.13l-25.79-12.11c-3.16-1.49-4.56-5.34-3.13-8.61l14.33-32.57c1.44-3.27,5.17-4.72,8.34-3.23l25.79,12.11c3.16,1.49,4.56,5.34,3.13,8.61l-14.33,32.57c-1.44,3.27-5.17,4.72-8.34,3.23Z"/>
        <path class="cls-17" d="m263.9,237.27l-54.87-9.34c-3.43-.58-5.75-3.93-5.19-7.47l4.09-25.67c.57-3.54,3.8-5.94,7.23-5.36l54.87,9.34c3.43.58,5.75,3.93,5.19,7.47l-4.09,25.67c-.57,3.54-3.8,5.94-7.23,5.36Z"/>
        <path class="cls-4" d="m309.52,208.34l-13.89,31.58c-1.44,3.27-5.17,4.72-8.34,3.23l-50.62-23.77c-3.16-1.49-4.56-5.34-3.13-8.61l13.89-31.58c1.44-3.27,5.17-4.72,8.34-3.23l50.62,23.77c3.16,1.49,4.56,5.34,3.13,8.61Z"/>
        <path class="cls-3" d="m276.59,230.54l-3.66-18.04c-.71-3.52,1.47-6.96,4.87-7.7l43.13-9.35c3.4-.74,6.74,1.51,7.45,5.03l3.66,18.04c.71,3.52-1.47,6.96-4.87,7.7l-43.13,9.35c-3.4.74-6.74-1.51-7.45-5.03Z"/>
        <path class="cls-11" d="m325.03,201.31l15.31,9.38c4.87,2.99,6.48,9.49,3.59,14.52l-11.44,19.92c-2.89,5.04-9.18,6.7-14.06,3.71l-15.31-9.38c-4.87-2.99-6.48-9.49-3.59-14.52l11.44-19.92c2.89-5.04,9.18-6.7,14.06-3.71Z"/>
        <path class="cls-13" d="m337.4,236.32l-16.65-18.05c-2.4-2.6-2.3-6.72.21-9.2l25.82-25.43c2.52-2.48,6.5-2.38,8.9.22l16.65,18.05c2.4,2.6,2.3,6.72-.21,9.2l-25.82,25.43c-2.52,2.48-6.5,2.38-8.9-.22Z"/>
        <rect class="cls-7" x="330.29" y="162.4" width="48.26" height="43.36" rx="6" ry="6"/>
        <path class="cls-9" d="m379.65,179.5l-31.19,4.18c-3.45.46-6.61-2.05-7.05-5.61l-4.02-31.98c-.45-3.56,1.98-6.82,5.43-7.29l31.19-4.18c3.45-.46,6.61,2.05,7.05,5.61l4.02,31.98c.45,3.56-1.98,6.82-5.43,7.29Z"/>
        <path class="cls-10" d="m358.71,163.77l-38.8-8.95c-3.39-.78-5.53-4.26-4.77-7.76l5.38-24.92c.76-3.51,4.12-5.71,7.51-4.93l38.8,8.95c3.39.78,5.53,4.26,4.77,7.76l-5.38,24.92c-.76,3.51-4.12,5.71-7.51,4.93Z"/>
        <path class="cls-8" d="m313.84,150.11l-41.51-30.1c-2.85-2.06-3.53-6.12-1.54-9.06l10.77-15.85c2-2.94,5.92-3.65,8.77-1.59l41.51,30.1c2.85,2.06,3.53,6.12,1.54,9.06l-10.77,15.85c-2,2.94-5.92,3.65-8.77,1.59Z"/>
        <path class="cls-11" d="m349.74,86l-21.13-9.92c-3.16-1.49-4.56-5.34-3.13-8.61l9.21-20.94c1.44-3.27,5.17-4.72,8.34-3.23l21.13,9.92c3.16,1.49,4.56,5.34,3.13,8.61l-9.21,20.94c-1.44,3.27-5.17,4.72-8.34,3.23Z"/>
        <path class="cls-17" d="m383.26,107.98l-45.57-7.76c-3.43-.58-5.75-3.93-5.19-7.47l4.09-25.67c.57-3.54,3.8-5.94,7.23-5.36l45.57,7.76c3.43.58,5.75,3.93,5.19,7.47l-4.09,25.67c-.57,3.54-3.8,5.94-7.23,5.36Z"/>
        <path class="cls-4" d="m371.55,103.94l-13.74,31.23c-1.44,3.27-5.17,4.72-8.34,3.23l-35.49-16.67c-3.16-1.49-4.56-5.34-3.13-8.61l13.74-31.23c1.44-3.27,5.17-4.72,8.34-3.23l35.49,16.67c3.16,1.49,4.56,5.34,3.13,8.61Z"/>
      </g>
    </g>
  </g>
</svg>